<svg width="369" height="687" viewBox="0 0 369 687" fill="none" xmlns="http://www.w3.org/2000/svg">
<path d="M31.8506 14.4287C37.063 13.1704 42.7876 13.5216 46.043 13.5967C47.2982 13.6136 48.5544 13.6301 49.8477 13.6475L49.9541 13.6484L50.0605 13.6523C85.6289 14.7355 118.993 31.6164 144.08 53.9961L147.977 57.4531L148.112 57.5732L148.245 57.6982C162.205 70.8289 175.469 88.8555 184.427 108.595C194.003 86.1764 208.955 65.6718 226.535 50.7705L226.729 50.6055L226.93 50.4492C254.471 28.9645 286.632 14.29 323.453 13.9775C325.125 13.9316 325.139 13.9314 326.871 13.8838L326.998 13.8799L327.126 13.8789C332.245 13.8426 337.972 14.0681 344.461 16.6406L345.092 16.8965L348.163 18.1768L350.19 20.8145C356.8 29.4099 355.955 38.6489 355.831 43.2734C355.813 44.3969 355.796 45.5212 355.777 46.6787L355.775 46.793L355.771 46.9062C354.211 92.3727 331.228 133.93 301.391 164.777C300.307 165.9 299.224 167.025 298.107 168.182L297.954 168.34L297.796 168.493C285.183 180.673 270.345 190.69 254.36 198.146C279.745 208.618 303.161 225.012 319.234 249.174L319.782 250.006L319.89 250.169L319.991 250.336C351.529 302.061 340.382 364.607 328.367 414.973L328.244 415.489L328.078 415.994C295.055 515.949 278.723 566.424 264.368 597.434C249.321 629.939 235.863 642.179 210.731 665.588L209.732 666.519L208.557 667.212C197.65 673.637 186.33 674.813 175.154 673.294L173.958 673.131L172.815 672.743C153.257 666.094 139.47 650.688 129.244 635.062C119.068 619.511 111.065 601.486 104.576 588.478L104.562 588.447L104.546 588.416C79.8815 538.273 60.9136 486.778 46.1836 433.098V433.097C45.7287 431.452 45.2734 429.806 44.8047 428.111L44.8008 428.095L44.7959 428.078C35.7373 394.957 30.0474 361.946 29.7744 327.057L29.7256 323.808V323.766C29.4769 302.323 32.9973 281.222 43.4307 261.064C43.9299 260.085 44.429 259.105 44.9434 258.097L45.0059 257.976L45.0703 257.855C51.6717 245.578 60.3667 236.335 69.1768 227.833C70.2078 226.774 71.2405 225.713 72.3027 224.622L72.4248 224.497L72.5498 224.375C84.9786 212.302 99.8645 203.877 115.217 197.673C81.4672 181.376 53.5646 155.544 34.7197 121.7L34.6562 121.587L34.5957 121.473C28.246 109.493 21.6464 94.4795 17.3379 78.8213C13.0764 63.3341 10.7603 46.1592 14.0742 30.3691L14.5449 28.126L15.7803 26.1963C19.9215 19.7278 25.4131 15.9829 31.8506 14.4287Z" fill="#181A18" stroke="white" stroke-width="25"/>
<path d="M97.2194 250.881C142.524 208.201 223.773 212.617 270.634 249.229C289.534 265.41 299.924 284.956 303.041 309.67C303.469 315.981 303.549 322.256 303.516 328.581C303.51 330.305 303.503 332.029 303.497 333.805C303.29 349.396 301.482 364.336 298.479 379.613C298.219 380.958 297.959 382.304 297.691 383.69C292.943 407.957 292.943 407.957 290.877 410.023C288.801 410.185 286.717 410.246 284.635 410.263C283.311 410.279 281.985 410.294 280.621 410.31C278.459 410.327 278.459 410.327 276.254 410.344C273.23 410.387 270.207 410.43 267.184 410.474C262.396 410.537 257.608 410.594 252.819 410.634C248.213 410.675 243.607 410.745 239.001 410.819C236.848 410.827 236.848 410.826 234.652 410.834C233.318 410.859 231.984 410.885 230.609 410.911C228.849 410.929 228.848 410.929 227.052 410.948C223.15 411.704 221.798 412.971 219.413 416.105C218.398 420.537 218.398 420.537 219.413 425.228C222.436 429.273 224.877 432.303 229.934 433.551C233.44 433.856 236.878 433.923 240.397 433.906C242.304 433.94 242.305 433.94 244.251 433.975C248.294 434.04 252.336 434.054 256.38 434.066C259.129 434.101 261.878 434.14 264.627 434.182C271.349 434.278 278.071 434.327 284.795 434.351C281.193 450.796 276.939 466.675 271.205 482.533C270.849 483.524 270.494 484.515 270.128 485.536C225.843 608.627 225.843 608.628 192.803 635.059C187.768 637.073 185.274 637.637 179.88 636.58C141.874 614.356 119.55 539.263 105.374 499.733V498.213C107.368 498.198 109.363 498.184 111.419 498.17C118.821 498.109 126.222 498.009 133.624 497.897C136.827 497.854 140.031 497.822 143.234 497.801C147.839 497.768 152.443 497.697 157.047 497.619C159.196 497.616 159.196 497.616 161.387 497.613C169.332 497.497 169.332 497.497 176.222 493.879C179.162 489.382 179.237 486.756 178.359 481.487C175.324 477.679 173.474 475.666 168.659 474.616C167.322 474.602 165.985 474.589 164.607 474.575C163.086 474.545 161.564 474.515 159.997 474.484C158.365 474.482 156.733 474.48 155.052 474.478C153.374 474.453 151.694 474.428 149.964 474.402C144.604 474.328 139.244 474.297 133.883 474.265C130.249 474.223 126.614 474.177 122.979 474.129C114.07 474.016 105.16 473.937 96.2506 473.885C67.361 384.286 67.361 384.286 67.361 352.244C69.598 352.236 69.5984 352.236 71.8805 352.227C85.9311 352.171 99.9817 352.083 114.032 351.965C121.255 351.905 128.478 351.855 135.702 351.832C142.672 351.809 149.643 351.756 156.613 351.683C159.273 351.661 161.933 351.649 164.593 351.648C168.318 351.645 172.04 351.603 175.764 351.553C176.866 351.561 177.967 351.569 179.102 351.577C184.259 351.47 187.039 351.057 191.208 347.916C193.903 344.679 193.903 344.679 194.324 340.08C193.367 334.338 192.111 332.916 187.482 329.436C183.329 328.824 179.778 328.578 175.625 328.606C173.844 328.583 173.844 328.582 172.027 328.558C168.111 328.514 164.196 328.511 160.279 328.51C157.56 328.487 154.842 328.461 152.124 328.433C144.975 328.367 137.826 328.336 130.676 328.313C123.379 328.283 116.081 328.22 108.784 328.159C94.4697 328.044 80.1549 327.968 65.8405 327.916C65.8235 325.758 65.8114 323.601 65.8014 321.443C65.7942 320.242 65.7874 319.039 65.7799 317.802C66.2119 292.474 76.6734 270.915 94.7301 253.411C95.5513 252.576 96.3733 251.741 97.2194 250.881Z" fill="#F66D1D"/>
<path d="M97.2194 250.881C142.524 208.201 223.773 212.617 270.634 249.229C289.534 265.41 299.924 284.956 303.041 309.67C303.469 315.981 303.549 322.256 303.516 328.581C303.51 330.305 303.503 332.029 303.497 333.805C303.29 349.396 301.482 364.336 298.479 379.613C298.219 380.958 297.959 382.304 297.691 383.69C292.943 407.957 292.943 407.957 290.877 410.023C288.801 410.185 286.717 410.246 284.635 410.263C283.311 410.279 281.985 410.294 280.621 410.31C278.459 410.327 278.459 410.327 276.254 410.344C273.23 410.387 270.207 410.43 267.184 410.474C262.396 410.537 257.608 410.594 252.819 410.634C248.213 410.675 243.607 410.745 239.001 410.819C236.848 410.827 236.848 410.826 234.652 410.834C233.318 410.859 231.984 410.885 230.609 410.911C228.849 410.929 228.848 410.929 227.052 410.948C223.15 411.704 221.798 412.971 219.413 416.105C218.398 420.537 218.398 420.537 219.413 425.228C222.436 429.273 224.877 432.303 229.934 433.551C233.44 433.856 236.878 433.923 240.397 433.906C242.304 433.94 242.305 433.94 244.251 433.975C248.294 434.04 252.336 434.054 256.38 434.066C259.129 434.101 261.878 434.14 264.627 434.182C271.349 434.278 278.071 434.327 284.795 434.351C281.193 450.796 276.939 466.675 271.205 482.533C270.849 483.524 270.494 484.515 270.128 485.536C225.843 608.627 225.843 608.628 192.803 635.059C187.768 637.073 185.274 637.637 179.88 636.58C141.874 614.356 119.55 539.263 105.374 499.733V498.213C107.368 498.198 109.363 498.184 111.419 498.17C118.821 498.109 126.222 498.009 133.624 497.897C136.827 497.854 140.031 497.822 143.234 497.801C147.839 497.768 152.443 497.697 157.047 497.619C159.196 497.616 159.196 497.616 161.387 497.613C169.332 497.497 169.332 497.497 176.222 493.879C179.162 489.382 179.237 486.756 178.359 481.487C175.324 477.679 173.474 475.666 168.659 474.616C167.322 474.602 165.985 474.589 164.607 474.575C163.086 474.545 161.564 474.515 159.997 474.484C158.365 474.482 156.733 474.48 155.052 474.478C153.374 474.453 151.694 474.428 149.964 474.402C144.604 474.328 139.244 474.297 133.883 474.265C130.249 474.223 126.614 474.177 122.979 474.129C114.07 474.016 105.16 473.937 96.2506 473.885C67.361 384.286 67.361 384.286 67.361 352.244C69.598 352.236 69.5984 352.236 71.8805 352.227C85.9311 352.171 99.9817 352.083 114.032 351.965C121.255 351.905 128.478 351.855 135.702 351.832C142.672 351.809 149.643 351.756 156.613 351.683C159.273 351.661 161.933 351.649 164.593 351.648C168.318 351.645 172.04 351.603 175.764 351.553C176.866 351.561 177.967 351.569 179.102 351.577C184.259 351.47 187.039 351.057 191.208 347.916C193.903 344.679 193.903 344.679 194.324 340.08C193.367 334.338 192.111 332.916 187.482 329.436C183.329 328.824 179.778 328.578 175.625 328.606C173.844 328.583 173.844 328.582 172.027 328.558C168.111 328.514 164.196 328.511 160.279 328.51C157.56 328.487 154.842 328.461 152.124 328.433C144.975 328.367 137.826 328.336 130.676 328.313C123.379 328.283 116.081 328.22 108.784 328.159C94.4697 328.044 80.1549 327.968 65.8405 327.916C65.8235 325.758 65.8114 323.601 65.8014 321.443C65.7942 320.242 65.7874 319.039 65.7799 317.802C66.2119 292.474 76.6734 270.915 94.7301 253.411C95.5513 252.576 96.3733 251.741 97.2194 250.881Z" stroke="black"/>
<path d="M238.241 90.9119C255.636 68.3612 289.603 49.5611 318.246 51.1824C315.115 89.3751 295.176 122.899 266.632 147.847C250.696 160.362 228.083 174.343 207.249 174.344C206.31 145.726 218.101 115.574 236.139 93.7566C236.832 92.8178 237.526 91.8791 238.241 90.9119Z" fill="#65984F"/>
<path d="M238.241 90.9119C255.636 68.3612 289.603 49.5611 318.246 51.1824C315.115 89.3751 295.176 122.899 266.632 147.847C250.696 160.362 228.083 174.343 207.249 174.344C206.31 145.726 218.101 115.574 236.139 93.7566C236.832 92.8178 237.526 91.8791 238.241 90.9119Z" stroke="black"/>
<path d="M50.6356 49.6619C78.3877 53.8137 101.127 64.3767 122.099 83.113C123.046 83.899 123.993 84.6851 124.969 85.4949C145.921 104.201 160.018 138.453 161.9 166.106C161.915 168.853 161.794 171.601 161.633 174.344C131.216 171.402 102.919 152.176 83.4442 129.219C65.4306 106.68 52.2245 78.791 50.6356 49.6619Z" fill="#669950"/>
<path d="M50.6356 49.6619C78.3877 53.8137 101.127 64.3767 122.099 83.113C123.046 83.899 123.993 84.6851 124.969 85.4949C145.921 104.201 160.018 138.453 161.9 166.106C161.915 168.853 161.794 171.601 161.633 174.344C131.216 171.402 102.919 152.176 83.4442 129.219C65.4306 106.68 52.2245 78.791 50.6356 49.6619Z" stroke="black"/>
</svg>
